<?xml version="1.0" encoding="utf-8" ?><svg xmlns="http://www.w3.org/2000/svg" xmlns:xlink="http://www.w3.org/1999/xlink" width="2048" height="2048" viewBox="0 0 2048 2048"><path fill="#E383FA" transform="scale(2 2)" d="M471.096 400.117C497.905 399.504 528.072 399.937 554.959 400.089C554.972 402.534 555.186 404.894 555.37 407.33C560.417 408.097 569.409 408.385 574.559 408.464C574.657 411.468 574.888 414.634 575.06 417.649C582.262 418.277 589.485 418.515 596.868 419.198C596.982 422.83 596.949 424.356 596.529 427.955C601.99 427.969 605.469 428.121 610.909 428.588L611.51 437.21C615.947 437.648 621.127 437.751 625.633 437.946C625.91 440.763 625.852 443.633 625.865 446.469C629.353 446.503 633.313 446.844 636.836 447.07L637.084 454.43C642.09 454.503 647.093 454.715 652.088 455.063L652.1 462.404C657.298 462.786 662.77 462.898 667.997 463.085L667.999 469.412C680.687 469.831 696.908 469.92 709.594 469.715L709.507 479.547C705.906 479.742 702.303 479.891 698.699 479.994L698.358 489.362C694.253 489.421 690.148 489.518 686.045 489.654C685.944 492.408 685.699 495.229 685.499 497.984C679.269 497.881 673.945 497.998 667.752 498.658L667.535 505.843C660.92 506.33 650.609 505.937 643.261 506.171L642.952 513.849C637.57 513.984 633.831 514.097 628.435 514.821C628.454 517.316 628.122 520.007 627.886 522.509C623.61 523.116 619.396 523.45 615.098 523.824L614.901 531.613C611.191 531.913 607.31 532.075 603.58 532.283C603.619 535.287 603.526 538.49 603.492 541.511C599.265 541.59 594.889 541.902 590.657 542.144C590.476 544.041 590.134 545.943 589.828 547.827C584.593 548.061 583.505 547.673 580.37 552.008L569.437 552.134C569.505 555.007 569.418 557.979 569.378 560.86C562.126 561.392 551.446 561.151 543.917 561.219L544.014 570.282C549.918 570.456 555.824 570.529 561.73 570.499C562.026 573.633 561.973 576.761 561.982 579.909C567.852 580.332 570.961 580.562 576.938 580.488L576.938 588.199L590.89 588.302L591.096 594.092C605.135 594.977 626.362 594.295 640.921 594.261C641.026 592.253 641.323 590.355 641.595 588.365C644.928 588.026 648.607 588.025 651.984 587.952C652.028 585.2 652.148 582.368 652.233 579.611C655.603 578.941 658.878 578.988 662.311 578.908C662.427 575.259 662.43 571.462 662.487 567.799L656.53 567.525L655.789 557.144C650.857 557.061 645.925 557.05 640.993 557.11C641.045 562.727 640.801 567.49 640.479 573.076C636.035 573.035 630.82 573.206 626.527 572.343C625.805 566.455 625.993 556.717 626.385 550.778C629.371 550.532 634.326 551.454 635.884 548.914L636.136 542.99C645.606 542.467 655.096 542.373 664.575 542.709C664.714 545.27 664.636 547.475 664.57 550.026L672.966 550.265C672.918 553.379 672.353 557.354 673.477 559.882C675.335 561.328 675.264 560.867 678.07 561.141C678.195 570.056 678.134 578.971 677.886 587.883C674.873 588.372 671.729 588.763 668.696 589.178C668.531 592.58 668.38 594.38 667.812 597.743C664.206 598.066 657.799 598.257 654.258 598.198L653.935 606.524C648.771 606.02 639.373 606.297 633.998 606.306L598.404 606.38C594.727 606.386 583.23 606.689 580.242 605.673C579.352 603.744 579.523 601.778 579.466 599.605C573.754 599.528 567.794 599.15 562.069 598.87C561.639 595.995 561.604 594.368 561.552 591.519C556.015 591.484 550.574 591.582 545.109 590.703L544.916 583.109C540.408 583.146 535.673 583.023 531.146 582.979L530.712 575.633C527.655 575.454 523.968 575.5 520.857 575.463L520.836 568.04L483.504 567.94L483.556 561.595C477.326 560.88 469.024 561.028 462.586 560.983L462.353 552.918C456.242 552.212 448.281 552.287 441.557 551.685C441.332 548.695 441.28 545.377 441.177 542.356C436.178 541.895 430.204 541.885 424.872 541.461C424.599 538.892 424.518 535.82 424.38 533.203C418.785 532.45 415.149 531.972 409.467 531.856C409.158 529.095 409.112 526.383 409.015 523.608C405.788 523.559 401.775 523.106 398.493 522.819L398.353 515.156C393.142 514.655 388.291 514.284 383.052 513.654L382.626 506.094C373.6 505.884 364.547 506.199 355.528 505.499L355.376 498.49C349.559 497.902 342.084 497.994 336.095 497.921C335.934 495.355 335.949 492.456 335.902 489.859C332.095 489.473 327.858 489.434 323.998 489.317L323.78 480.201L313.369 479.49C313.081 476.591 313.094 472.947 313.033 469.978C327.177 469.619 341.328 469.598 355.473 469.917C355.596 467.674 355.894 465.261 356.122 463.01C361.39 463.012 366.657 462.913 371.921 462.713C371.945 459.893 372.222 457.684 372.542 454.906C377.199 454.81 381.858 454.837 386.514 454.986L387.547 446.953L398.393 446.811C398.479 443.909 398.592 441.008 398.732 438.108L411.94 437.429L412.54 428.899C417.346 428.344 423.087 428.526 428.382 428.003L428.524 419.072C435.685 418.949 442.84 418.617 449.982 418.075L450.049 408.725L470.485 408.39L471.096 400.117ZM473.841 426.013C466.422 426.067 459.345 426.49 452.053 426.616C452.004 429.244 452.006 432.125 451.886 434.728C444.681 435.226 437.028 435.466 429.938 436.082C429.945 438.697 430.014 441.42 429.824 444.019C424.872 444.193 420.101 444.689 415.177 445.16C415.318 447.809 415.487 450.289 415.385 452.949L405.041 453.736C404.969 456.153 404.972 459.7 404.694 462.015C400.428 462.601 397.177 462.952 392.861 463.104C392.819 466.145 392.806 468.647 392.464 471.675C386.326 471.988 380.179 472.113 374.034 472.05C373.972 474.483 373.983 477.616 373.754 479.983C368.197 480.012 361.535 479.871 356.092 480.418L355.949 489.036C365.358 489.075 376.175 488.876 385.458 489.47L385.666 497.568C391.766 497.57 397.865 497.751 403.954 498.11C404.219 501.073 404.435 504.04 404.604 507.01C408.112 507.025 411.434 506.941 414.907 507.457L415.037 516.38C417.932 516.452 423.238 516.286 425.992 516.984C429.547 517.885 428.801 521.791 428.614 524.879C433.395 525.171 439.289 525.334 443.879 526.336C443.925 529.144 444.018 532.102 443.993 534.896C451.19 535.522 458.906 535.745 465.915 536.465C465.934 539.284 465.969 542.103 466.021 544.921C472.849 544.98 479.196 545.054 486.009 545.451L486.037 552.909C502.564 553.387 521.349 553.212 537.934 553.024L538.096 545.419L544.017 545.341L561.959 545.041L562.07 536.074C568.238 536.005 573.256 535.868 579.462 535.059C579.483 532.312 579.441 529.277 579.584 526.558C585.053 526.141 590.519 525.672 595.979 525.151C596.123 522.686 596.215 519.571 596.567 517.181C601.909 516.669 605.712 516.328 611.137 516.37C611.219 513.391 611.321 510.414 611.442 507.437C614.66 507.157 618.804 506.901 621.881 506.277C622.256 503.473 622.524 501.402 622.63 498.54C627.15 498.045 631.7 497.897 636.242 498.097L637.102 489.591C647.514 488.986 657.611 489.057 668.036 489.182L668.04 480.553C662.553 480.283 657.489 479.995 651.987 480.122C651.85 477.694 651.606 475.02 651.778 472.618L636.029 472.058C635.751 469.132 635.657 468.106 635.889 465.11C631.594 464.928 626.963 464.643 622.692 464.633C622.622 462.145 622.51 459.558 622.502 457.079C618.978 456.916 615.212 456.673 611.707 456.601L611.473 449.867C608.792 449.544 606.459 449.284 603.802 448.718L603.767 444.38C600.128 444.09 596.48 443.851 592.872 443.311C592.146 440.038 592.001 439.01 591.824 435.665C585.32 434.88 579.582 435.232 573.507 434.51L573.611 426.412C567.977 425.887 561.797 425.955 556.1 425.891L555.91 417.495C549.812 416.616 534.812 417.001 528.179 417.008L473.971 417.071L473.841 426.013Z"/><path fill="#E383FA" transform="scale(2 2)" d="M538.41 439.555C546.211 439.491 554.012 439.51 561.813 439.612L561.864 446.973L569.988 447.095C569.824 449.993 569.99 453.722 570.049 456.685L576.434 456.4C577.156 465.985 576.826 479.956 576.919 489.989L570 490.06C570.106 494.721 569.982 499.674 569.943 504.359L561.963 505.116C561.683 507.815 561.719 510.669 561.683 513.395C557.441 513.489 552.847 513.9 548.588 514.198C548.105 516.913 548.006 520.198 547.831 522.99C541.838 523.15 535.861 523.69 529.936 524.605L530.095 531.564C522.792 531.598 505.739 532.061 497.745 531.186C497.405 530.871 497.065 530.556 496.725 530.241C495.96 528.263 496.256 526.616 496.367 524.47C491.134 523.829 482.762 523.383 477.591 523.532C477.382 520.114 477.248 517.766 476.392 514.441C473.268 514.338 470.145 514.203 467.023 514.038C466.79 510.765 466.72 508.86 466.842 505.577C463.551 505.553 460.266 505.17 456.987 504.855C456.688 500.473 456.867 495.055 456.898 490.592L449.768 490.476C449.37 486.511 449.523 480.385 449.51 476.25L449.555 455.994L456.231 455.905C456.28 452.05 456.099 444.805 457.383 441.509C459.816 439.734 482.199 440.187 486.43 440.255C486.443 444.044 486.294 447.219 486.054 451.007C483.815 451.037 481.757 450.837 479.752 451.711C478.46 455.073 478.912 494.774 479.314 500.464L486.461 500.494C486.649 504.296 486.843 506.014 487.549 509.752C491.899 510.71 495.618 510.584 500.046 510.604L500.046 518.166C508.474 519.048 515.59 518.782 523.986 518.506L524.268 510.91C528.875 510.891 533.477 510.563 538.041 509.929C537.958 506.44 538.194 503.62 538.456 500.145C541.208 499.904 543.693 499.71 546.461 499.601L546.579 451.153L538.311 450.994C538.039 447.058 538.248 443.48 538.41 439.555Z"/><path fill="#E383FA" transform="scale(2 2)" d="M476.08 354.168C484.543 353.764 495.165 354.006 503.723 354.009L553.028 354.042C552.594 357.226 552.829 361.193 552.916 364.469C562.331 364.679 572.211 364.565 581.664 364.604L581.976 374.073C588.416 374.078 596.621 374.576 603.038 375.079C603.246 378.077 603.203 381.833 603.247 384.897C606.893 385.468 611.653 385.769 615.402 386.112C615.527 389.464 615.857 393.017 616.115 396.379L628.879 396.503L629.168 406.822C633.591 407.031 638.066 407.565 642.476 408.028C642.538 411.043 642.811 414.443 642.994 417.488C646.489 417.652 649.675 417.987 653.155 418.355C653.608 421.653 653.856 424.744 654.128 428.058C658.62 428.548 663.462 428.457 668.005 428.482C668.092 430.952 668.291 433.512 668.447 435.986C673.547 436.64 680.198 436.49 685.45 436.525L685.278 444.484C679.065 444.576 672.851 444.553 666.639 444.416C666.28 442.564 666.004 440.418 665.714 438.53C661.045 438.158 656.785 438.075 652.117 437.983L651.776 431.692C646.924 430.376 643.815 430.469 638.863 430.533C638.733 427.715 638.623 424.897 638.532 422.078C634.717 421.641 630.899 421.561 627.062 421.425C627 418.457 626.477 414.502 626.158 411.475C621.465 411.121 616.769 410.804 612.071 410.526L611.802 401.174C607.755 401.072 604.755 401.082 600.787 400.356C600.591 397.852 600.653 394.67 600.63 392.109C593.982 391.891 586.791 391.967 580.1 391.916L580.056 383.447C572.475 382.422 560.916 382.51 553.079 382.444L553.144 373.613L544.269 373.202C520.867 372.914 497.46 373.085 474.064 373.716C474.387 376.599 474.736 379.066 473.742 381.788C471.962 383.103 450.545 382.833 445.96 383.048C446.036 386.247 445.918 388.744 445.746 391.928C440.113 391.933 430.248 391.707 425.075 392.572L425.015 400.681C421.282 401.059 415.857 401.076 411.992 401.204C411.931 404.153 411.685 407.398 411.521 410.369C406.871 410.592 402.83 411.048 398.226 411.579C398.252 414.774 398.065 418.306 397.958 421.524L386.105 421.648C385.835 424.674 385.625 427.705 385.474 430.739C381.7 430.771 377.778 430.937 373.992 431.042C373.658 433.386 373.272 435.723 372.833 438.051L357.715 438.13C357.824 440.158 358.072 442.563 357.163 444.325C353.325 444.882 340.656 444.548 336.119 444.518L336.062 436.546L355.944 436.272C356.04 433.726 356.241 431.078 356.396 428.525C361.597 428.522 366.782 428.197 371.976 427.924C371.892 424.805 372.161 421.674 372.362 418.559C375.885 418.283 379.415 418.097 382.948 417.998C383.398 414.633 383.456 411.005 383.59 407.59C387.615 407.071 390.984 407.051 395.049 406.973C395.478 404.11 395.545 399.786 395.674 396.789L408.71 396.094L408.505 386.055L422.113 385.028L422.502 375.276C429.657 374.666 436.786 374.516 443.977 373.976L444.022 364.986C454.589 364.493 465.243 364.528 475.826 364.471C475.779 361.23 475.98 357.452 476.08 354.168Z"/></svg>